<svg xmlns="http://www.w3.org/2000/svg" viewBox="0 0 256 256">
  <defs>
    <linearGradient id="grad1" x1="0%" y1="0%" x2="100%" y2="100%">
      <stop offset="0%" style="stop-color:#00d4ff;stop-opacity:1" />
      <stop offset="100%" style="stop-color:#00ff88;stop-opacity:1" />
    </linearGradient>
  </defs>
  <rect width="256" height="256" fill="#0a1628"/>
  <circle cx="64" cy="128" r="20" fill="url(#grad1)"/>
  <circle cx="128" cy="64" r="20" fill="url(#grad1)"/>
  <circle cx="128" cy="192" r="20" fill="url(#grad1)"/>
  <circle cx="192" cy="128" r="20" fill="url(#grad1)"/>
  <line x1="64" y1="128" x2="128" y2="64" stroke="url(#grad1)" stroke-width="4" stroke-linecap="round"/>
  <line x1="64" y1="128" x2="128" y2="192" stroke="url(#grad1)" stroke-width="4" stroke-linecap="round"/>
  <line x1="128" y1="64" x2="192" y2="128" stroke="url(#grad1)" stroke-width="4" stroke-linecap="round"/>
  <line x1="128" y1="192" x2="192" y2="128" stroke="url(#grad1)" stroke-width="4" stroke-linecap="round"/>
  <circle cx="128" cy="128" r="16" fill="url(#grad1)"/>
  <line x1="64" y1="128" x2="112" y2="128" stroke="url(#grad1)" stroke-width="4" stroke-linecap="round"/>
  <line x1="144" y1="128" x2="192" y2="128" stroke="url(#grad1)" stroke-width="4" stroke-linecap="round"/>
  <circle cx="64" cy="128" r="12" fill="#0a1628"/>
  <circle cx="128" cy="64" r="12" fill="#0a1628"/>
  <circle cx="128" cy="192" r="12" fill="#0a1628"/>
  <circle cx="192" cy="128" r="12" fill="#0a1628"/>
  <circle cx="128" cy="128" r="8" fill="#0a1628"/>
</svg>